<svg width="100" height="28" viewBox="0 0 100 28" fill="none" xmlns="http://www.w3.org/2000/svg">
  <path fill-rule="evenodd" clip-rule="evenodd"
    d="M1.93164 10.3317V14.3837C7.2482 11.6854 10.9948 8.95192 13.5672 5.83526C16.4925 9.25265 21.2519 12.1941 25.445 14.3489V10.2969C20.8296 7.79219 17.4523 5.1598 15.6771 2.73546C15.8509 2.41916 16.0156 2.09858 16.1715 1.77344H12.0732C10.1282 4.91728 6.89822 7.64194 1.93164 10.3317ZM63.5469 2.54248H67.02C66.9408 9.13806 66.8182 13.0816 65.8616 16.1294H73.0975V19.2383H64.4141C63.0302 21.3962 60.8847 23.3886 57.5383 26.1911H52.0508C52.2598 26.041 52.4689 25.865 52.6558 25.7075L52.6559 25.7074L52.656 25.7074L52.7454 25.6322C56.141 22.8738 58.4589 20.9661 60.0326 19.2383H51.2168V16.1294H62.1548C63.3744 13.3737 63.4436 9.46882 63.5469 2.54248ZM32.1126 3.31002H48.1237V3.31006H48.1261V26.2252H48.1236V26.2261H28.5352V23.1172H28.5353V16.1291V13.0202V6.41893V3.31002H32.1126ZM44.5488 23.1172V6.41893H32.1126V13.0202H43.0182V16.1291H32.1126V23.1172H44.5488ZM60.9736 7.88609V4.42787L53.2285 3.31006V6.76828L60.9736 7.88609ZM53.2285 9.17944V12.6377L60.9736 13.7555V10.2973L53.2285 9.17944ZM12.0762 26.1899C14.9935 23.2048 17.2623 20.7787 18.666 19.2384H3.83976V16.1295H19.856V16.0947H23.4333V19.2735L22.9818 19.7975C22.9784 19.8009 22.9546 19.8278 22.911 19.8773L22.9107 19.8776C22.5086 20.3331 20.4253 22.6934 17.0428 26.1899H12.0762ZM85.2871 16.1294H76.1523V19.2383H85.2871V26.2256H88.8644V19.2383H98.0331V16.1294H88.8644V14.3838H85.2871V16.1294ZM83.3736 3.31006H93.6222H96.8171H96.8175V6.90801C95.8151 7.80593 94.3112 9.10167 91.7005 10.4621C93.5225 10.9345 95.6276 11.3867 98.0701 11.7985V15.117C93.361 14.3424 89.7809 13.4156 87.0144 12.4622C84.2175 13.4423 80.675 14.3703 76.1523 15.1169V11.7984C78.5246 11.3971 80.5802 10.9592 82.3662 10.5026C80.4516 9.51195 79.2141 8.58917 78.2732 7.88615C78.1689 7.80749 77.3992 7.1974 77.0219 6.89803L76.7754 6.73372L80.0749 1.77344L83.3736 3.31006ZM92.3616 6.41897C91.2031 7.20845 89.5661 8.12305 87.1176 9.03688C84.6722 8.12375 83.0174 7.20852 81.8092 6.41897H92.3616ZM69.6947 20.7769H65.4922L68.8611 26.2262H73.0984L69.6947 20.7769ZM90.4941 20.7769H94.6966L98.0656 26.2262H93.8631L90.4941 20.7769ZM83.7589 20.7769H79.5564L76.1875 26.2262H80.39L83.7589 20.7769ZM10.791 10.158V13.6162L17.251 14.5244V11.0662L10.791 10.158Z"
    fill="#F04142" />
</svg>
